<svg width="229" height="219" viewBox="0 0 229 219" fill="none" xmlns="http://www.w3.org/2000/svg">
<rect width="229" height="218.719" rx="16" fill="#78469E"/>
<path d="M114 109C114 98.6363 117.673 89.7814 125.019 82.4356C132.365 75.0897 141.219 71.4168 151.583 71.4168C161.947 71.4168 170.802 75.0897 178.148 82.4356C185.494 89.7814 189.167 98.6363 189.167 109H114ZM76.4167 146.583C66.0528 146.583 57.1979 142.911 49.8521 135.565C42.5062 128.219 38.8333 119.364 38.8333 109H114C114 119.364 110.327 128.219 102.981 135.565C95.6354 142.911 86.7806 146.583 76.4167 146.583ZM114 109C103.636 109 94.7812 105.327 87.4354 97.9814C80.0896 90.6356 76.4167 81.7807 76.4167 71.4168C76.4167 61.0529 80.0896 52.1981 87.4354 44.8522C94.7812 37.5064 103.636 33.8335 114 33.8335V109ZM114 184.167V109C124.364 109 133.219 112.673 140.565 120.019C147.91 127.365 151.583 136.22 151.583 146.583C151.583 156.947 147.91 165.802 140.565 173.148C133.219 180.494 124.364 184.167 114 184.167Z" fill="#191021" fill-opacity="0.6"/>
</svg>
