<svg width="229" height="219" viewBox="0 0 229 219" fill="none" xmlns="http://www.w3.org/2000/svg">
<rect width="229" height="218.719" rx="16" fill="#78469E"/>
<g opacity="0.6">
<path d="M87.325 60.654L81.5167 43.3998L88.0083 41.179L93.8167 58.4332L87.325 60.654ZM111.583 52.6248V35.5415H118.417V52.6248H111.583ZM142.675 60.654L136.183 58.4332L141.992 41.179L148.483 43.3998L142.675 60.654ZM47.35 184.337L45.9833 174.087L82.0292 168.621C83.6236 168.393 85.0201 167.737 86.2187 166.653C87.4173 165.569 88.2985 164.232 88.8625 162.641L94.5 144.533C95.2972 142.141 95.0979 139.864 93.9021 137.7C92.7063 135.536 90.8556 134.169 88.35 133.6L82.5417 151.537L72.8042 148.462L88.0083 100.8C88.4639 99.3193 88.5208 97.8387 88.1792 96.3582C87.8375 94.8776 87.0972 93.6818 85.9583 92.7707L61.8708 138.212C60.2764 141.287 57.9986 143.736 55.0375 145.558C52.0764 147.38 48.8306 148.291 45.3 148.291H39.8333V138.041H45.3C46.875 138.041 48.3425 137.639 49.7026 136.834C51.0627 136.028 52.1008 134.893 52.8167 133.429L82.2 78.079L89.2042 81.8373C93.0764 84.1151 95.8097 87.304 97.4042 91.404C98.9986 95.504 99.1125 99.7179 97.7458 104.046L91.425 123.862C96.6639 125.115 100.508 128.105 102.956 132.831C105.405 137.557 105.832 142.54 104.238 147.779L98.6 165.887C97.4611 169.304 95.5535 172.151 92.8771 174.429C90.2007 176.707 87.0972 178.13 83.5667 178.7L47.35 184.337ZM182.65 184.337L146.433 178.7C142.903 178.13 139.799 176.707 137.123 174.429C134.447 172.151 132.539 169.304 131.4 165.887L125.763 147.779C124.168 142.54 124.595 137.557 127.044 132.831C129.492 128.105 133.336 125.115 138.575 123.862L132.254 104.046C130.888 99.7179 131.001 95.504 132.596 91.404C134.19 87.304 136.924 84.1151 140.796 81.8373L147.8 78.079L177.183 133.429C177.899 134.893 178.937 136.028 180.297 136.834C181.658 137.639 183.125 138.041 184.7 138.041H190.167V148.291H184.7C181.169 148.291 177.924 147.38 174.963 145.558C172.001 143.736 169.724 141.287 168.129 138.212L144.042 92.7707C142.903 93.6818 142.163 94.8776 141.821 96.3582C141.479 97.8387 141.536 99.3193 141.992 100.8L157.196 148.462L147.458 151.537L141.65 133.6C139.144 134.169 137.294 135.536 136.098 137.7C134.902 139.864 134.703 142.141 135.5 144.533L141.138 162.641C141.701 164.232 142.583 165.569 143.781 166.653C144.98 167.737 146.376 168.393 147.971 168.621L184.017 174.087L182.65 184.337Z" fill="#191021"/>
</g>
</svg>
