<svg width="58" height="58" viewBox="0 0 58 58" fill="none" xmlns="http://www.w3.org/2000/svg">
<rect width="58" height="58" rx="29" fill="#79DF55"/>
<path d="M26.5385 45C17.5128 45 13 41.8941 13 35.6824C13 34.8196 13.0868 33.8922 13.2604 32.9L14.6272 24.8765C15.3215 20.7353 17.2091 17.5647 20.2899 15.3647C23.4142 13.1647 27.3629 12.0431 32.1361 12C41.3787 12 46 15.1922 46 21.5765C46 22.9569 45.8264 24.2078 45.4793 25.3294C45.1755 26.4078 44.8501 27.1412 44.503 27.5294L43.9823 28.1765H32.9172C34.002 27.2275 34.5444 26.1059 34.5444 24.8118C34.5444 22.4824 33.3728 21.3176 31.0296 21.3176C29.641 21.3176 28.4477 21.7275 27.4497 22.5471C26.4517 23.3667 25.8008 24.6176 25.497 26.3L24.6509 31.0235C24.5641 31.4549 24.5207 31.8647 24.5207 32.2529C24.5207 34.5392 25.9527 35.6824 28.8166 35.6824C29.7712 35.6824 30.6174 35.3804 31.355 34.7765C32.1361 34.1726 32.5917 33.5039 32.7219 32.7706L43.5266 32.9C42.0947 40.9667 36.432 45 26.5385 45Z" fill="#202421"/>
</svg>
