<svg width="67" height="75" viewBox="0 0 67 75" fill="none" xmlns="http://www.w3.org/2000/svg">
<path d="M9.64284 45.8333C5.73251 45.8333 3.77734 44.4797 3.77734 41.7725C3.77734 41.3965 3.81494 40.9923 3.89014 40.5599L4.48233 37.0632C4.78313 35.2584 5.60091 33.8767 6.93569 32.9179C8.28926 31.9591 10 31.4703 12.068 31.4515C16.0723 31.4515 18.0745 32.8427 18.0745 35.625C18.0745 36.2266 17.9993 36.7718 17.8489 37.2606C17.7173 37.7306 17.5763 38.0502 17.4259 38.2194L17.2003 38.5014H12.4064C12.8764 38.0878 13.1114 37.599 13.1114 37.035C13.1114 36.0198 12.6038 35.5122 11.5886 35.5122C10.987 35.5122 10.47 35.6908 10.0376 36.048C9.60524 36.4052 9.32325 36.9504 9.19165 37.6836L8.82505 39.7422C8.78745 39.9302 8.76866 40.1088 8.76866 40.278C8.76866 41.2743 9.38904 41.7725 10.6298 41.7725C11.0434 41.7725 11.41 41.6409 11.7296 41.3777C12.068 41.1145 12.2654 40.8231 12.3218 40.5036L17.0029 40.5599C16.3825 44.0755 13.9292 45.8333 9.64284 45.8333Z" fill="#202421"/>
<path d="M25.4009 41.8289C25.8332 41.8289 26.2186 41.7349 26.557 41.5469L26.416 44.7335C25.5324 45.4667 24.5267 45.8333 23.3987 45.8333C21.6879 45.8333 20.5787 45.4385 20.0711 44.6489C19.7328 44.1225 19.5636 43.5679 19.5636 42.9851C19.5636 42.3835 19.6012 41.8571 19.6764 41.4059L21.3683 31.8745H26.1622L24.5831 40.7573C24.5643 40.8701 24.5549 40.9735 24.5549 41.0675C24.5549 41.5751 24.8369 41.8289 25.4009 41.8289ZM21.9323 27.278C21.9323 26.0748 22.1955 25.2006 22.7219 24.6554C23.2671 24.0914 24.1037 23.8094 25.2317 23.8094C26.8108 23.8094 27.6004 24.505 27.6004 25.8962C27.6004 27.0806 27.3278 27.9454 26.7826 28.4906C26.2562 29.0358 25.4197 29.3084 24.2729 29.3084C22.7125 29.3084 21.9323 28.6316 21.9323 27.278Z" fill="#202421"/>
<path d="M34.3253 45.8333C32.1446 45.8333 30.5748 45.3445 29.616 44.3669C28.9016 43.6525 28.5444 42.6937 28.5444 41.4905C28.5444 41.0957 28.582 40.6727 28.6572 40.2216L30.5748 29.3084L35.7353 27.1652L34.9175 31.8745H42.7006L41.9956 35.8506H34.2125L33.6485 39.0372C33.5733 39.3944 33.5357 39.714 33.5357 39.996C33.5357 41.1803 34.0997 41.7725 35.2277 41.7725C35.8293 41.7725 36.3275 41.5187 36.7223 41.0111C37.1359 40.5036 37.4179 39.8268 37.5683 38.9808H42.2494C41.4598 43.5491 38.8185 45.8333 34.3253 45.8333Z" fill="#202421"/>
<path d="M22.7193 24.6554C22.1929 25.2006 21.9297 26.0748 21.9297 27.278C21.9297 28.6316 22.7099 29.3084 24.2702 29.3084C25.417 29.3084 26.2536 29.0358 26.78 28.4906C27.3252 27.9454 27.5978 27.0806 27.5978 25.8962C27.5978 24.505 26.8082 23.8094 25.229 23.8094C24.101 23.8094 23.2645 24.0914 22.7193 24.6554Z" fill="white"/>
<path d="M49.8451 41.8289C50.2775 41.8289 50.6629 41.7349 51.0013 41.5469L50.8603 44.7335C49.9767 45.4667 48.9709 45.8333 47.8429 45.8333C46.1322 45.8333 45.023 45.4385 44.5154 44.6489C44.177 44.1225 44.0078 43.5679 44.0078 42.9851C44.0078 42.3835 44.0454 41.8571 44.1206 41.4059L45.8126 31.8745H50.6065L49.0273 40.7573C49.0085 40.8701 48.9991 40.9735 48.9991 41.0675C48.9991 41.5751 49.2811 41.8289 49.8451 41.8289ZM46.3766 27.278C46.3766 26.0748 46.6398 25.2006 47.1662 24.6554C47.7113 24.0914 48.5479 23.8094 49.6759 23.8094C51.2551 23.8094 52.0447 24.505 52.0447 25.8962C52.0447 27.0806 51.7721 27.9454 51.2269 28.4906C50.7005 29.0358 49.8639 29.3084 48.7171 29.3084C47.1568 29.3084 46.3766 28.6316 46.3766 27.278Z" fill="#202421"/>
<path d="M66.8346 34.8073C66.8346 35.4276 66.6467 36.001 66.2707 36.5274H61.6459C61.7963 36.4146 61.8715 36.2266 61.8715 35.9634C61.8715 35.7002 61.7211 35.4934 61.4203 35.343C61.1195 35.1738 60.7342 35.0892 60.2642 35.0892C58.8542 35.0892 58.1492 35.5216 58.1492 36.3864C58.1492 36.7248 58.4124 36.9692 58.9388 37.1196C59.4652 37.27 60.1044 37.3922 60.8564 37.4862C61.6083 37.5802 62.3603 37.7212 63.1123 37.9092C63.8643 38.0784 64.5035 38.4262 65.0299 38.9526C65.5563 39.479 65.8195 40.184 65.8195 41.0675C65.8195 42.6279 65.1897 43.8123 63.9301 44.6207C62.6893 45.4291 60.8752 45.8333 58.4876 45.8333C56.1 45.8333 54.4269 45.4479 53.4681 44.6771C52.7161 44.0755 52.3401 43.2483 52.3401 42.1955C52.3401 41.8947 52.3683 41.5845 52.4247 41.2649L57.134 41.2085C57.0964 41.4717 57.2468 41.7067 57.5852 41.9135C57.9424 42.1015 58.4594 42.1955 59.1362 42.1955C59.813 42.1955 60.3018 42.1297 60.6026 41.9981C60.9034 41.8477 61.0537 41.5751 61.0537 41.1803C61.0537 40.9171 60.7906 40.7385 60.2642 40.6445C59.7378 40.5318 59.0892 40.4378 58.3184 40.3626C57.5664 40.2874 56.805 40.1652 56.0342 39.996C55.2823 39.8268 54.6431 39.4696 54.1167 38.9244C53.5903 38.3792 53.3271 37.6648 53.3271 36.7812C53.3271 35.0704 53.9851 33.7545 55.3011 32.8333C56.6358 31.9121 58.5534 31.4515 61.0537 31.4515C64.9077 31.4515 66.8346 32.5701 66.8346 34.8073Z" fill="#202421"/>
<path d="M47.1646 24.6554C46.6382 25.2006 46.375 26.0748 46.375 27.278C46.375 28.6316 47.1552 29.3084 48.7156 29.3084C49.8623 29.3084 50.6989 29.0358 51.2253 28.4906C51.7705 27.9454 52.0431 27.0806 52.0431 25.8962C52.0431 24.505 51.2535 23.8094 49.6743 23.8094C48.5464 23.8094 47.7098 24.0914 47.1646 24.6554Z" fill="white"/>
<path fill-rule="evenodd" clip-rule="evenodd" d="M35.1969 31.8607C30.3383 32.4957 29.5703 32.7557 29.5703 33.7649C29.5703 34.786 32.2308 36.392 34.3525 36.6519C36.0311 36.8573 38.8498 36.4603 40.3905 35.8016C42.5531 34.8769 43.819 32.4564 42.567 31.6393C41.8847 31.1941 39.8238 31.256 35.1969 31.8607ZM35.7733 36.2595C39.1258 36.2468 42.7147 34.5368 41.3112 33.6206C40.5301 33.1112 37.2924 32.9162 35.4935 33.2704C33.6229 33.6385 31.6802 34.5393 31.6802 35.038C31.6802 35.6 33.9141 36.2667 35.7733 36.2595Z" fill="white"/>
<path d="M41.3107 33.6206C42.7142 34.5367 39.1253 36.2468 35.7728 36.2595C33.9136 36.2666 31.6797 35.5999 31.6797 35.0379C31.6797 34.5392 33.6224 33.6385 35.493 33.2703C37.2919 32.9162 40.5297 33.1112 41.3107 33.6206Z" fill="white"/>
<path d="M12.9642 55.8254H11.2785L10.8404 54.4064H8.68802L8.2404 55.8254H6.59278L8.80231 49.5397H10.7642L12.9642 55.8254ZM8.99278 53.2921H10.5356L9.76421 50.7492L8.99278 53.2921ZM16.6952 49.5397C17.4444 49.5397 18.0254 49.7175 18.4381 50.0731C18.8571 50.4223 19.0667 50.8889 19.0667 51.4731C19.0667 52.1143 18.8603 52.6032 18.4476 52.9397C18.0349 53.2762 17.454 53.4445 16.7048 53.4445L16.5524 53.5302H15.3048V55.8254H13.6952V49.5397H16.6952ZM16.4667 52.3683C16.7841 52.3683 17.0222 52.3048 17.181 52.1778C17.3397 52.0508 17.419 51.8477 17.419 51.5683C17.419 51.2953 17.3397 51.0953 17.181 50.9683C17.0222 50.8413 16.7841 50.7778 16.4667 50.7778H15.3048V52.3683H16.4667ZM17.4286 52.7112L19.4381 55.8254H17.6286L16.019 53.0731L17.4286 52.7112ZM25.4728 49.5397V50.8064H23.4251V55.8254H21.7871V50.8064H19.7299V49.5397H25.4728ZM31.424 49.4445C32.0081 49.4445 32.5224 49.5366 32.9668 49.7207C33.4176 49.8985 33.8081 50.1619 34.1382 50.5112L33.3478 51.5683C33.0748 51.2826 32.7795 51.0699 32.4621 50.9302C32.1509 50.7842 31.7954 50.7112 31.3954 50.7112C31.1605 50.7112 30.97 50.7366 30.824 50.7873C30.6779 50.8381 30.5732 50.908 30.5097 50.9969C30.4462 51.0858 30.4144 51.1873 30.4144 51.3016C30.4144 51.435 30.4748 51.5492 30.5954 51.6445C30.7224 51.7334 30.9255 51.8096 31.2049 51.8731L32.2621 52.1112C32.8906 52.2572 33.3509 52.4699 33.643 52.7492C33.9351 53.0286 34.0811 53.4 34.0811 53.8635C34.0811 54.308 33.9668 54.6858 33.7382 54.9969C33.5097 55.3016 33.1954 55.5334 32.7954 55.6921C32.3954 55.8445 31.9382 55.9207 31.424 55.9207C31.0049 55.9207 30.6049 55.8762 30.224 55.7873C29.843 55.6921 29.5001 55.5588 29.1954 55.3873C28.8906 55.2159 28.6335 55.0191 28.424 54.7969L29.2144 53.7016C29.3732 53.8858 29.5668 54.0508 29.7954 54.1969C30.0303 54.3366 30.2843 54.4477 30.5573 54.5302C30.8367 54.6127 31.1192 54.654 31.4049 54.654C31.6271 54.654 31.8113 54.6318 31.9573 54.5873C32.1097 54.5429 32.2208 54.4762 32.2906 54.3873C32.3605 54.2985 32.3954 54.1937 32.3954 54.0731C32.3954 53.9397 32.3478 53.8286 32.2525 53.7397C32.1573 53.6445 31.9763 53.5651 31.7097 53.5016L30.5478 53.2445C30.1922 53.1619 29.8748 53.054 29.5954 52.9207C29.3224 52.781 29.1065 52.5969 28.9478 52.3683C28.789 52.1334 28.7097 51.8413 28.7097 51.4921C28.7097 51.0985 28.8176 50.7492 29.0335 50.4445C29.2494 50.1334 29.5605 49.8889 29.9668 49.7112C30.3732 49.5334 30.8589 49.4445 31.424 49.4445ZM40.27 49.5397V50.8064H38.2224V55.8254H36.5843V50.8064H34.5272V49.5397H40.27ZM46.7016 49.5397V53.2635C46.7016 54.1524 46.4635 54.8191 45.9874 55.2635C45.5175 55.7016 44.8191 55.9207 43.8921 55.9207C42.9715 55.9207 42.2731 55.7016 41.7969 55.2635C41.3207 54.8191 41.0826 54.1524 41.0826 53.2635V49.5397H42.7302V53.2921C42.7302 53.7429 42.8254 54.0794 43.0159 54.3016C43.2127 54.5239 43.5048 54.635 43.8921 54.635C44.2858 54.635 44.5778 54.5239 44.7683 54.3016C44.9651 54.0794 45.0635 53.7429 45.0635 53.2921V49.5397H46.7016ZM50.6346 49.5397C51.6187 49.5397 52.3711 49.8127 52.8917 50.3588C53.4187 50.9048 53.6822 51.6794 53.6822 52.6826C53.6822 53.6858 53.4187 54.4604 52.8917 55.0064C52.3711 55.5524 51.6187 55.8254 50.6346 55.8254H47.9679V49.5397H50.6346ZM50.4727 54.5873C51.006 54.5873 51.3933 54.4286 51.6346 54.1112C51.8822 53.7873 52.006 53.3112 52.006 52.6826C52.006 52.054 51.8822 51.581 51.6346 51.2635C51.3933 50.9397 51.006 50.7778 50.4727 50.7778H49.606V54.5873H50.4727ZM56.442 49.5397V55.8254H54.8039V49.5397H56.442ZM60.6549 49.4445C61.2898 49.4445 61.8359 49.5746 62.293 49.835C62.7565 50.0889 63.1121 50.4572 63.3597 50.9397C63.6073 51.4223 63.7311 52.0032 63.7311 52.6826C63.7311 53.3619 63.6073 53.9429 63.3597 54.4254C63.1121 54.908 62.7565 55.2794 62.293 55.5397C61.8359 55.7937 61.2898 55.9207 60.6549 55.9207C60.02 55.9207 59.4708 55.7937 59.0073 55.5397C58.5438 55.2794 58.1882 54.908 57.9406 54.4254C57.693 53.9429 57.5692 53.3619 57.5692 52.6826C57.5692 52.0032 57.693 51.4223 57.9406 50.9397C58.1882 50.4572 58.5438 50.0889 59.0073 49.835C59.4708 49.5746 60.02 49.4445 60.6549 49.4445ZM60.6549 50.7302C60.3501 50.7302 60.093 50.8032 59.8835 50.9492C59.674 51.0953 59.5152 51.3143 59.4073 51.6064C59.2994 51.8921 59.2454 52.2508 59.2454 52.6826C59.2454 53.108 59.2994 53.4667 59.4073 53.7588C59.5152 54.0508 59.674 54.2699 59.8835 54.4159C60.093 54.5619 60.3501 54.635 60.6549 54.635C60.9597 54.635 61.2136 54.5619 61.4168 54.4159C61.6263 54.2699 61.7851 54.0508 61.893 53.7588C62.0009 53.4667 62.0549 53.108 62.0549 52.6826C62.0549 52.2508 62.0009 51.8921 61.893 51.6064C61.7851 51.3143 61.6263 51.0953 61.4168 50.9492C61.2136 50.8032 60.9597 50.7302 60.6549 50.7302Z" fill="#202421"/>
</svg>
