<svg width="222" height="222" viewBox="0 0 222 222" fill="none" xmlns="http://www.w3.org/2000/svg">
<g clip-path="url(#clip0_115_90)">
<path d="M130.411 38.5555C150.095 43.8296 152.531 44.56 160.157 46.9915C167.775 49.4211 172.703 52.0382 176.843 55.0733C181.132 58.1945 184.492 61.7659 187.443 66.8658C190.156 71.4744 191.832 76.6188 192.356 81.9411C192.909 87.0353 192.716 92.6209 191.011 100.433C189.282 108.247 188.719 110.728 183.444 130.411C178.17 150.094 177.44 152.531 175.008 160.156C172.579 167.775 169.955 172.701 166.927 176.843C163.817 181.195 159.792 184.813 155.134 187.442C150.525 190.154 145.381 191.831 140.059 192.355C134.965 192.908 129.379 192.716 121.567 191.011C113.753 189.282 111.272 188.718 91.5886 183.444C71.9055 178.17 69.469 177.44 61.8435 175.008C54.2252 172.579 49.2991 169.954 45.1566 166.927C40.806 163.816 37.1885 159.791 34.5576 155.134C31.8433 150.526 30.1667 145.381 29.6445 140.059C29.0843 134.963 29.2838 129.379 30.9889 121.567C32.7177 113.753 33.2815 111.272 38.5556 91.5885C43.8297 71.9053 44.5602 69.4689 46.9917 61.8433C49.4232 54.2178 52.0384 49.297 55.0734 45.1565C58.1826 40.8042 62.2079 37.1863 66.866 34.5575C71.4734 31.8416 76.6184 30.1649 81.9413 29.6443C87.0446 29.0861 92.6138 29.2817 100.433 30.9887C108.247 32.7175 110.728 33.2814 130.411 38.5555ZM120.706 74.7777C111.099 72.2036 100.863 73.5511 92.2501 78.524C83.6369 83.4968 77.3519 91.6875 74.7778 101.294C72.2037 110.901 73.5513 121.137 78.5241 129.75C83.4969 138.363 91.6876 144.648 101.294 147.222C110.901 149.796 121.137 148.449 129.75 143.476C138.363 138.503 144.648 130.312 147.222 120.706C149.796 111.099 148.449 100.863 143.476 92.2499C138.503 83.6367 130.312 77.3518 120.706 74.7777ZM168.28 85.584C168.923 83.1823 168.587 80.6234 167.343 78.4701C166.1 76.3168 164.052 74.7456 161.651 74.102C159.249 73.4585 156.69 73.7954 154.537 75.0386C152.384 76.2818 150.812 78.3295 150.169 80.7311C149.525 83.1328 149.862 85.6918 151.105 87.8451C152.349 89.9984 154.396 91.5696 156.798 92.2131C159.2 92.8567 161.759 92.5198 163.912 91.2766C166.065 90.0334 167.636 87.9857 168.28 85.584ZM116.823 89.2666C122.588 90.811 127.502 94.582 130.486 99.7499C133.469 104.918 134.278 111.059 132.733 116.823C131.189 122.587 127.418 127.502 122.25 130.485C117.082 133.469 110.941 134.278 105.177 132.733C99.4126 131.189 94.4982 127.418 91.5145 122.25C88.5308 117.082 87.7222 110.941 89.2667 105.176C90.8112 99.4124 94.5822 94.498 99.75 91.5143C104.918 88.5306 111.059 87.7221 116.823 89.2666Z" fill="#284120"/>
</g>
<defs>
<clipPath id="clip0_115_90">
<rect width="180" height="180" fill="white" transform="translate(47.3604 0.772949) rotate(15)"/>
</clipPath>
</defs>
</svg>
