<svg width="181" height="180" viewBox="0 0 181 180" fill="none" xmlns="http://www.w3.org/2000/svg">
<g clip-path="url(#clip0_239_2)">
<path d="M90.2271 15C110.605 15 113.147 15.075 121.142 15.45C129.13 15.825 134.567 17.0775 139.352 18.9375C144.302 20.8425 148.472 23.4225 152.642 27.585C156.456 31.3342 159.407 35.8694 161.29 40.875C163.142 45.6525 164.402 51.0975 164.777 59.085C165.13 67.08 165.227 69.6225 165.227 90C165.227 110.378 165.152 112.92 164.777 120.915C164.402 128.902 163.142 134.34 161.29 139.125C159.412 144.133 156.46 148.67 152.642 152.415C148.892 156.227 144.357 159.178 139.352 161.062C134.575 162.915 129.13 164.175 121.142 164.55C113.147 164.903 110.605 165 90.2271 165C69.8496 165 67.307 164.925 59.312 164.55C51.3245 164.175 45.887 162.915 41.102 161.062C36.0945 159.184 31.5585 156.232 27.8121 152.415C23.9976 148.666 21.0465 144.131 19.1646 139.125C17.3046 134.347 16.0521 128.902 15.6771 120.915C15.3246 112.92 15.2271 110.378 15.2271 90C15.2271 69.6225 15.3021 67.08 15.6771 59.085C16.0521 51.09 17.3046 45.66 19.1646 40.875C21.0413 35.8663 23.9931 31.3299 27.8121 27.585C31.5596 23.7692 36.0953 20.818 41.102 18.9375C45.887 17.0775 51.3171 15.825 59.312 15.45C67.307 15.0975 69.8496 15 90.2271 15ZM90.2271 52.5C80.2814 52.5 70.7432 56.4509 63.7105 63.4835C56.6779 70.5161 52.7271 80.0544 52.7271 90C52.7271 99.9456 56.6779 109.484 63.7105 116.517C70.7432 123.549 80.2814 127.5 90.2271 127.5C100.173 127.5 109.711 123.549 116.744 116.517C123.776 109.484 127.727 99.9456 127.727 90C127.727 80.0544 123.776 70.5161 116.744 63.4835C109.711 56.4509 100.173 52.5 90.2271 52.5ZM138.977 50.625C138.977 48.1386 137.989 45.754 136.231 43.9959C134.473 42.2377 132.088 41.25 129.602 41.25C127.116 41.25 124.731 42.2377 122.973 43.9959C121.215 45.754 120.227 48.1386 120.227 50.625C120.227 53.1114 121.215 55.496 122.973 57.2541C124.731 59.0123 127.116 60 129.602 60C132.088 60 134.473 59.0123 136.231 57.2541C137.989 55.496 138.977 53.1114 138.977 50.625ZM90.2271 67.5C96.1944 67.5 101.917 69.8705 106.137 74.0901C110.357 78.3097 112.727 84.0326 112.727 90C112.727 95.9674 110.357 101.69 106.137 105.91C101.917 110.129 96.1944 112.5 90.2271 112.5C84.2597 112.5 78.5367 110.129 74.3171 105.91C70.0976 101.69 67.7271 95.9674 67.7271 90C67.7271 84.0326 70.0976 78.3097 74.3171 74.0901C78.5367 69.8705 84.2597 67.5 90.2271 67.5Z" fill="#284120"/>
</g>
<defs>
<clipPath id="clip0_239_2">
<rect width="180" height="180" fill="white" transform="translate(0.227051)"/>
</clipPath>
</defs>
</svg>
