<svg width="180" height="180" viewBox="0 0 180 180" fill="none" xmlns="http://www.w3.org/2000/svg">
<path d="M91.7874 16C133.112 16 165 41.6099 165 84.9063C165 112.214 152.417 126.788 131.254 126.788C123.103 126.788 111.949 124.665 106.373 113.629C101.797 121.27 94.6473 126.788 83.7798 126.788C65.9056 126.788 52.1783 111.931 52.1783 90.7075C52.1783 69.2008 66.1916 54.4857 83.4938 54.4857C92.5024 54.4857 99.0801 58.4474 103.513 64.1071V56.1836H124.962L124.819 96.6501C124.819 103.866 127.965 106.696 133.255 106.696C139.69 106.696 143.122 102.451 143.122 87.8776C143.122 50.3824 120.386 36.0918 92.3594 36.0918C59.4709 36.0918 36.878 56.1836 36.878 89.8585C36.878 123.958 58.8989 143.908 90.6435 143.908C99.5091 143.908 108.232 142.352 115.667 138.956L119.814 158.482C111.092 162.019 101.082 164 89.9285 164C46.0296 164 15 133.862 15 90C15 46.2792 47.0305 16 91.7874 16ZM88.7846 106.413C97.0782 106.413 103.513 100.329 103.513 90.7075C103.513 81.2275 97.0782 74.8604 88.7846 74.8604C80.3479 74.8604 74.0562 81.2275 74.0562 90.7075C74.0562 100.329 80.4909 106.413 88.7846 106.413Z" fill="#284120"/>
</svg>
