<svg width="178" height="186" viewBox="0 0 178 186" fill="none" xmlns="http://www.w3.org/2000/svg">
<path d="M48.8781 14.9733C92.3016 -10.0973 141.382 -2.4681 167.711 43.1348C184.317 71.8975 179.957 94.8814 157.719 107.72C149.155 112.665 136.144 117.196 123.573 108.955C123.411 119.779 119.254 129.928 107.835 136.521C89.0531 147.365 65.5943 140.045 52.6879 117.69C39.6096 95.0378 45.3861 71.0373 63.5668 60.5407C73.0328 55.0755 82.3537 55.2578 90.4533 58.5297L85.6349 50.1841L108.173 37.1717L132.631 79.8808C137.019 87.4813 142.045 88.5534 147.605 85.3437C154.366 81.44 155.391 74.8871 146.529 59.5371C123.728 20.0444 91.1469 18.7856 61.6971 35.7884C27.1387 55.7407 15.6165 90.6093 36.0945 126.078C56.8306 161.994 92.1017 169.648 125.458 150.39C134.774 145.011 142.993 138.08 148.741 129.993L164.972 148.043C157.958 157.06 148.645 165.219 136.925 171.986C90.7968 198.618 39.8647 185.699 13.1917 139.5C-13.3953 93.4499 1.84859 42.1258 48.8781 14.9733ZM100.704 112.025C109.418 106.993 112.48 96.6812 106.629 86.5472C100.864 76.5623 90.231 73.7597 81.5163 78.7911C72.6513 83.9094 69.912 94.4326 75.6768 104.418C81.5277 114.552 91.9889 117.056 100.704 112.025Z" fill="#284120"/>
</svg>
