<svg width="229" height="219" viewBox="0 0 229 219" fill="none" xmlns="http://www.w3.org/2000/svg">
<rect width="229" height="218.719" rx="16" fill="#78469E"/>
<path d="M67.05 109.342L42.2 85.0835L67.05 60.996L91.725 85.0835L67.05 109.342ZM96.275 177.333V141C88.8083 140.395 81.4 139.608 74.05 138.64C66.7 137.672 59.35 136.333 52 134.625L54.625 124.375C64.5729 126.653 74.5505 128.276 84.5577 129.244C94.5649 130.212 104.72 130.696 115.023 130.696C125.327 130.696 135.482 130.212 145.489 129.244C155.496 128.276 165.458 126.653 175.375 124.375L178 134.625C170.65 136.333 163.301 137.684 155.953 138.675C148.605 139.667 141.196 140.424 133.725 140.946V177.333H96.275ZM67.05 95.1627L77.2 85.0835L67.05 75.1752L56.725 85.0835L67.05 95.1627ZM114.979 71.4168C109.626 71.4168 105.083 69.5879 101.35 65.93C97.6167 62.2722 95.75 57.8306 95.75 52.605C95.75 47.3796 97.6236 42.9446 101.371 39.3002C105.118 35.6557 109.668 33.8335 115.021 33.8335C120.374 33.8335 124.917 35.6624 128.65 39.3203C132.383 42.9781 134.25 47.4198 134.25 52.6453C134.25 57.8708 132.376 62.3057 128.629 65.9502C124.882 69.5946 120.332 71.4168 114.979 71.4168ZM115.014 120.275C111.505 120.275 108.496 119.055 105.988 116.616C103.479 114.176 102.225 111.244 102.225 107.818C102.225 104.392 103.475 101.455 105.974 99.0064C108.473 96.5578 111.477 95.3335 114.986 95.3335C118.495 95.3335 121.504 96.5532 124.013 98.9927C126.521 101.432 127.775 104.365 127.775 107.791C127.775 111.216 126.526 114.154 124.027 116.602C121.527 119.051 118.523 120.275 115.014 120.275ZM114.969 61.1668C117.44 61.1668 119.521 60.3511 121.213 58.7196C122.904 57.0883 123.75 55.0668 123.75 52.6551C123.75 50.2435 122.914 48.212 121.243 46.5606C119.572 44.9092 117.501 44.0835 115.031 44.0835C112.56 44.0835 110.479 44.8992 108.788 46.5307C107.096 48.162 106.25 50.1836 106.25 52.5953C106.25 55.0069 107.086 57.0384 108.757 58.6897C110.428 60.3411 112.499 61.1668 114.969 61.1668ZM153.15 107.292L142.3 88.5002L153.208 69.7085H175.025L185.875 88.5002L174.967 107.292H153.15ZM159.217 97.0418H168.9L173.8 88.5002L168.958 79.9585H159.275L154.375 88.5002L159.217 97.0418Z" fill="#191021" fill-opacity="0.6"/>
</svg>
